<svg xmlns="http://www.w3.org/2000/svg" xmlns:xlink="http://www.w3.org/1999/xlink" viewBox="0 0 48 48"><defs><style>.cls-1{fill:url(#linear-gradient);}.cls-2{fill:#fff;}</style><linearGradient id="linear-gradient" x1="4.11" y1="983.16" x2="33.94" y2="953.02" gradientTransform="translate(0 -939.06)" gradientUnits="userSpaceOnUse"><stop offset="0" stop-color="#beea2e"/><stop offset="1" stop-color="#52ba00"/></linearGradient></defs><g id="Layer_2" data-name="Layer 2"><g id="Layer_1-2" data-name="Layer 1"><path class="cls-1" d="M24,0h0A24,24,0,0,1,48,24h0A24,24,0,0,1,24,48h0A24,24,0,0,1,0,24H0A24,24,0,0,1,24,0Z"/><path class="cls-2" d="M30.93,26.8a2.75,2.75,0,0,0-2,.53,2,2,0,0,1-1.73.4,12.17,12.17,0,0,1-6.91-6.91,2,2,0,0,1,.4-1.73,2.86,2.86,0,0,0,.53-2A21,21,0,0,0,18,12.7a2.3,2.3,0,0,0-1.41-.7c-1.82-.07-4.07,2.55-4.43,3.12-.89,1.23-.88,2.87,0,4.85C14.33,25.29,22.65,33.61,28,35.85a6.59,6.59,0,0,0,2.72.69,3.58,3.58,0,0,0,2.12-.66c.46-.26,3.21-2.59,3.14-4.45a2.37,2.37,0,0,0-.74-1.4A20.35,20.35,0,0,0,30.93,26.8Z"/></g></g></svg>