<svg xmlns="http://www.w3.org/2000/svg" viewBox="0 0 50 49.6"><defs><style>.cls-1{fill:#008be6;}.cls-2{fill-opacity:0.03;}.cls-3{fill:#fff;}</style></defs><g id="Layer_2" data-name="Layer 2"><g id="Layer_1-2" data-name="Layer 1"><path class="cls-1" d="M49,24.8A24,24,0,1,1,24.8,1H25A24,24,0,0,1,49,24.8Z"/><path class="cls-2" d="M48,24.8A23,23,0,0,1,25,47.6h0v2A24.9,24.9,0,0,0,50,24.8H48ZM25,47.6A23,23,0,0,1,2,24.8H0A25,25,0,0,0,25,49.6h0ZM2,24.8A23,23,0,0,1,25,2h0V0A25,25,0,0,0,0,24.8H2ZM25,2A23,23,0,0,1,48,24.8h2A25,25,0,0,0,25,0h0Z"/><path class="cls-3" d="M12.6,28.6h4.6a1.26,1.26,0,0,1,1.4,1,1.24,1.24,0,0,1-.9,1.4h-7A1.43,1.43,0,0,1,9,29.8a1.38,1.38,0,0,1,.5-1.3c1.6-2.1,3.2-4.1,4.9-6.2l.3-.4c-.1-.2-.3-.1-.4-.1H10.9a2.2,2.2,0,0,1-.8-.1,1,1,0,0,1-.8-1.3h0a1.09,1.09,0,0,1,.8-.8,2.2,2.2,0,0,1,.8-.1h5.6a3.4,3.4,0,0,1,1,.1,1.14,1.14,0,0,1,.8,1.4c0,.1,0,.1-.1.2a8.64,8.64,0,0,1-1,1.6L13,28.1a2.18,2.18,0,0,1-.4.5Z"/><path class="cls-3" d="M24.8,23.1a1.83,1.83,0,0,1,1-.7,1.28,1.28,0,0,1,1.6.9v6.6a1.4,1.4,0,0,1-.9,1.2,1.44,1.44,0,0,1-1.5-.4c-.2-.2-.2-.3-.5-.1a3.34,3.34,0,0,1-3.2.5,4.18,4.18,0,0,1-2.9-3.8,4.45,4.45,0,0,1,2.1-4.6,3.47,3.47,0,0,1,4.3.4Zm-3.7,3.8a2.84,2.84,0,0,0,.4,1.3,1.76,1.76,0,0,0,2.4.4l.4-.4a2.56,2.56,0,0,0,0-2.9,1.71,1.71,0,0,0-1.3-.7,1.92,1.92,0,0,0-1.9,2.3Zm11,.1a4.47,4.47,0,0,1,4.2-4.7A4.54,4.54,0,0,1,41,26.5a4.44,4.44,0,0,1-3.9,4.8H37a4.27,4.27,0,0,1-4.8-3.6,1.48,1.48,0,0,1-.1-.7Zm2.6-.2a2.26,2.26,0,0,0,.5,1.5,1.65,1.65,0,0,0,2.4.3h0l.3-.3a2.56,2.56,0,0,0,0-2.9,1.69,1.69,0,0,0-1.2-.7,1.88,1.88,0,0,0-1.9,1.8.37.37,0,0,0-.1.3Zm-3.6-1.9v4.9a1.42,1.42,0,0,1-1.3,1.4h-.4a1.24,1.24,0,0,1-.9-1.4V19.9a1.3,1.3,0,1,1,2.6-.2v5.2Z"/></g></g></svg>