<svg xmlns="http://www.w3.org/2000/svg" viewBox="0 0 48 48"><defs><style>.cls-1{fill:#007fff;}.cls-2{fill:#fff;fill-rule:evenodd;}</style></defs><g id="Layer_2" data-name="Layer 2"><g id="Layer_1-2" data-name="Layer 1"><g id="Layer_2-2" data-name="Layer 2"><g id="Layer_1-2-2" data-name="Layer 1-2"><g id="Facebook_Messenger" data-name="Facebook Messenger"><g id="Facebook_Messenger_2" data-name="Facebook Messenger 2"><path id="Rectangle" class="cls-1" d="M24,0h0A23.94,23.94,0,0,1,48,24h0A23.94,23.94,0,0,1,24,48h0A23.94,23.94,0,0,1,0,24H0A23.94,23.94,0,0,1,24,0Z"/><path id="Vector" class="cls-2" d="M25.5,28.3l-3.8-4.1-7.4,4.1,8.2-8.7,3.9,4.1,7.4-4.1ZM24,9.6c-8.3,0-15,6.2-15,13.9a13.27,13.27,0,0,0,5.6,10.8v5.3l5.1-2.8a15.4,15.4,0,0,0,4.3.6c8.3,0,15-6.2,15-13.9S32.3,9.6,24,9.6Z"/></g></g></g></g></g></g></svg>