<svg xmlns="http://www.w3.org/2000/svg" viewBox="0 0 66.4 59.56"><defs><style>.cls-1{fill:#0d4d97;}.cls-2{fill:#0fb8c0;}</style></defs><g id="Layer_2" data-name="Layer 2"><g id="Layer_3" data-name="Layer 3"><path class="cls-1" d="M37,42a1.11,1.11,0,0,0-1.51-.36L28.37,46a5.32,5.32,0,0,1-7.06-1.56L11.64,28.8a4.87,4.87,0,0,1,1.59-6.69l7.38-4.56a1.1,1.1,0,0,0,.36-1.5L14.84,6.13a1.1,1.1,0,0,0-1.5-.36L6,10.33c-8.2,5.06-7.91,18.37.71,32.36,4,6.41,8.94,11.51,14,14.36a17.82,17.82,0,0,0,8.65,2.51,11.89,11.89,0,0,0,6.34-1.77l7.06-4.36a1.09,1.09,0,0,0,.36-1.5ZM34.55,55.93c-4.47,2.76-9.42,1.1-12.78-.79C17,52.48,12.3,47.64,8.53,41.54.58,28.65,0,16.58,7.11,12.19l6.45-4,5,8.06-6.45,4A7.05,7.05,0,0,0,9.78,30l9.67,15.68A7.5,7.5,0,0,0,29.52,47.9l6.18-3.81,5,8Z"/><path class="cls-2" d="M62.33,0H32.71a4.08,4.08,0,0,0-4.07,4.08v17.8A4.08,4.08,0,0,0,32.71,26h3.48V33.2a1.11,1.11,0,0,0,.65,1,1.2,1.2,0,0,0,.45.09A1.11,1.11,0,0,0,38,34l8.86-8H62.32a4.08,4.08,0,0,0,4.08-4.08V4.08A4.08,4.08,0,0,0,62.33,0Zm1.89,21.88a1.89,1.89,0,0,1-1.89,1.89H46.46a1.05,1.05,0,0,0-.73.29l-7.35,6.67V24.86a1.09,1.09,0,0,0-1.09-1.09H32.71a1.89,1.89,0,0,1-1.89-1.89V4.08a1.9,1.9,0,0,1,1.89-1.9H62.33a1.9,1.9,0,0,1,1.89,1.9Z"/><path class="cls-2" d="M38.94,9.24a2.78,2.78,0,0,0-2,.82,2.73,2.73,0,0,0-.8,2A2.8,2.8,0,0,0,39,14.79h0A2.8,2.8,0,0,0,41.74,12a2.71,2.71,0,0,0-.82-1.95A2.66,2.66,0,0,0,38.94,9.24Zm0,3.37h0a.6.6,0,0,1-.61-.6.58.58,0,0,1,.17-.41.63.63,0,0,1,.44-.18.58.58,0,0,1,.43.18.54.54,0,0,1,.18.41A.62.62,0,0,1,39,12.61Z"/><path class="cls-2" d="M47.17,9.24a2.78,2.78,0,1,0,0,5.55h0A2.79,2.79,0,0,0,50,12a2.71,2.71,0,0,0-.82-1.95A2.77,2.77,0,0,0,47.17,9.24ZM47.79,12a.61.61,0,0,1-.6.6h0a.62.62,0,0,1-.61-.6.58.58,0,0,1,.17-.41.68.68,0,0,1,.44-.18.57.57,0,0,1,.43.18.54.54,0,0,1,.18.41Z"/><path class="cls-2" d="M55.4,9.24a2.75,2.75,0,0,0-2,.82,2.72,2.72,0,0,0-.81,2,2.8,2.8,0,0,0,2.8,2.77h0A2.79,2.79,0,0,0,58.2,12a2.78,2.78,0,0,0-2.8-2.76ZM56,12a.61.61,0,0,1-.6.6h0a.62.62,0,0,1-.62-.6A.59.59,0,0,1,55,11.6a.61.61,0,0,1,.43-.18.57.57,0,0,1,.43.18A.54.54,0,0,1,56,12Z"/></g></g></svg>