<svg xmlns="http://www.w3.org/2000/svg" viewBox="0 0 102.6 78.93"><defs><style>.cls-1{fill:#fff;}</style></defs><g id="Layer_2" data-name="Layer 2"><g id="Layer_3" data-name="Layer 3"><path class="cls-1" d="M0,52.48A32.13,32.13,0,0,1,1,48a66.29,66.29,0,0,1,2.7-6.32c2.21-4.68,4.49-9.32,6.74-14,.1-.21.18-.43.3-.63a1.52,1.52,0,0,1,2-.78,1.48,1.48,0,0,1,.68,2c-.78,1.7-1.61,3.37-2.42,5.05-.14.3-.27.59-.5,1.11l1.17-.69A24.1,24.1,0,0,1,34,32.22c.8.33,1.32.83,1.19,1.73s-1.11,1.44-2.23,1.1a43.06,43.06,0,0,0-6.06-1.63c-10.79-1.6-21.52,6.2-23.5,17a21.33,21.33,0,1,0,41.87,8.18c1.37-7.84-.94-14.49-6.72-19.94l-.37-.34A1.5,1.5,0,0,1,38,36.16a1.38,1.38,0,0,1,2.13-.06c1.63,1.76,3.16,3.6,4.72,5.42a11.54,11.54,0,0,1,.76,1.17c0-.4,0-.58,0-.76,0-5.85,0-11.69,0-17.53A14.33,14.33,0,0,0,30.75,10.05a14,14,0,0,0-12.15,7.6c-.81,1.45-1.47,3-2.2,4.49-.55,1.11-1.37,1.5-2.22,1.07s-1.06-1.29-.49-2.34c1.28-2.41,2.5-4.86,4-7.16a13,13,0,0,1,4.86-4.25A3.21,3.21,0,0,0,24,7.8a12.2,12.2,0,0,1,5.87-6.57A11.54,11.54,0,0,1,46.49,11.37v.5c-.07,2.3-.08,4.56,1.13,6.68a15.51,15.51,0,0,1,1,3.32h5.22c.76-2,1.49-3.84,2.19-5.74a3.51,3.51,0,0,0,.1-1.08,42,42,0,0,1,.42-6.27c1-4.78,4.92-8,9.94-8.7a11.33,11.33,0,0,1,11.25,6,10.57,10.57,0,0,0,3.89,4.44,15.62,15.62,0,0,1,5.55,6.7Q93,29.42,98.94,41.6A35.07,35.07,0,0,1,102,49.38a24.34,24.34,0,1,1-47.87,8.67c-.15-.95-.2-1.91-.3-2.92H49a68,68,0,0,1-1.62,7.26,24.31,24.31,0,0,1-46.87-3C.29,58.46.15,57.58,0,56.69ZM99.59,54.6A21.34,21.34,0,1,0,78.21,75.91,21.34,21.34,0,0,0,99.59,54.6Zm-7.5-20.37C89.2,28.37,86.53,22.4,83.36,16.7c-2.42-4.33-6.6-6.46-11.56-6.65A14.34,14.34,0,0,0,56.91,24.43c0,5.78,0,11.56,0,17.33,0,.25,0,.49.06.87A24.85,24.85,0,0,1,92.09,34.23ZM53.83,52V25H48.74V52ZM27.63,7.39a17.66,17.66,0,0,1,15.81,4.53A8.52,8.52,0,0,0,37,3.25C33.28,2.37,29.14,4.17,27.63,7.39ZM59.17,12A17.48,17.48,0,0,1,75,7.4,8.44,8.44,0,0,0,59.17,12Z"/><path class="cls-1" d="M24.37,36.43a18.14,18.14,0,1,1-18.17,18A18.13,18.13,0,0,1,24.37,36.43Zm0,3A15.14,15.14,0,1,0,39.48,54.6,15.1,15.1,0,0,0,24.35,39.43Z"/><path class="cls-1" d="M96.39,54.64a18.13,18.13,0,0,1-36.11,2.3c-1.38-10.68,6.85-20.37,17.41-20.5,1.28,0,2,.48,2,1.41s-.69,1.54-2,1.59a15.12,15.12,0,1,0,7,1.42c-.24-.11-.49-.21-.72-.33a1.49,1.49,0,1,1,1.24-2.7,17.68,17.68,0,0,1,7.52,5.8A18,18,0,0,1,96.39,54.64Z"/></g></g></svg>