<svg xmlns="http://www.w3.org/2000/svg" viewBox="0 0 90.17 90.15"><defs><style>.cls-1{fill:#fff;}</style></defs><g id="Layer_2" data-name="Layer 2"><g id="Layer_3" data-name="Layer 3"><path class="cls-1" d="M16.92,0h1.41c.69.57,1.43,1.09,2.06,1.72,2,1.9,3.88,3.84,5.79,5.79a.77.77,0,0,0,1.05.2c10.85-5.28,22.1-6.28,33.46-2.2C76.5,11.19,86.06,22.52,89.47,39c.33,1.6.47,3.24.7,4.86V49.3C90.1,49.88,90,50.45,90,51A43.52,43.52,0,1,1,7.66,27.32a.86.86,0,0,0-.18-1.2C5.32,24,3.19,21.86,1.06,19.72-.69,18-.22,15.84,2.12,15c2.88-1.08,5.77-2.12,8.64-3.24a1.91,1.91,0,0,0,1-1C12.8,8,13.83,5.28,14.8,2.51A3.84,3.84,0,0,1,16.92,0ZM32,21.69a28.69,28.69,0,0,1,21.17-3.23A28.06,28.06,0,0,1,70.69,30.61,28.89,28.89,0,0,1,31.88,71.47a27.91,27.91,0,0,1-12.3-14.69c-3.13-8.52-2.32-16.79,2.1-24.85-1.81.33-3.49.61-5.15,1a3.22,3.22,0,0,1-3.34-1c-.37-.42-.81-.79-1.25-1.21a38.21,38.21,0,1,0,62.84-9.91C61.27,6.29,42,6.22,30.55,12.1l.91.67A3.65,3.65,0,0,1,32.81,17C32.42,18.47,32.25,20,32,21.69Zm0,6.52c2.11,2.11,4.17,4.15,6.2,6.22.38.38.63.22,1,0a14.07,14.07,0,0,1,11.08-1.68,14.33,14.33,0,1,1-15.76,6.38A.75.75,0,0,0,34.32,38c-1.18-1.14-2.34-2.31-3.49-3.48-.86-.87-1.71-1.75-2.57-2.64A23.62,23.62,0,1,0,32,28.21Zm6.72,14.21a9,9,0,1,0,14.75-1.73c-2.78-3.17-7.85-4.1-11.11-1.87a7.1,7.1,0,0,1,.83.59c1.77,1.75,3.54,3.51,5.29,5.29a2.65,2.65,0,0,1-1.4,4.53,2.71,2.71,0,0,1-2.46-.9C42.65,46.37,40.7,44.43,38.69,42.42ZM26.37,22.72c.38-2.06.68-3.84,1-5.62a1.26,1.26,0,0,0-.4-1.31C24.4,13.22,21.83,10.62,19.24,8c-.18-.17-.38-.32-.63-.53-.61,1.63-1.15,3.17-1.76,4.68a.94.94,0,0,0,.29,1.21c2,2,4,4,6,6C24.2,20.45,25.2,21.5,26.37,22.72ZM22.48,26.4c0-.11,0-.15,0-.17q-4.63-4.66-9.3-9.32a.68.68,0,0,0-.6-.17c-1.67.59-3.32,1.22-5,1.83,0,.15,0,.22.09.26q4.19,4.2,8.38,8.38a.82.82,0,0,0,.61.24C18.6,27.12,20.54,26.75,22.48,26.4Z"/></g></g></svg>