<svg xmlns="http://www.w3.org/2000/svg" viewBox="0 0 100.91 100.89"><defs><style>.cls-1{fill:#fff;}</style></defs><g id="Layer_2" data-name="Layer 2"><g id="Layer_3" data-name="Layer 3"><path class="cls-1" d="M61.13,0V11.56c1.22.42,2.41.77,3.56,1.25a49.89,49.89,0,0,1,4.65,2.12,1.35,1.35,0,0,0,2-.33c2.38-2.46,4.82-4.85,7.13-7.17l15.11,15.1-5.69,5.69c-.76.77-1.94,1.47-2.12,2.36s.82,1.84,1.21,2.8c.76,1.89,1.49,3.78,2.16,5.7.2.57.43.76,1,.75,3.22,0,6.44,0,9.66,0h1.13v21.3H89.58c-1.11,2.65-2.12,5.18-3.23,7.66-.76,1.68-.83,1.65.49,3L93.6,78.5c-5,5-10,10-15.07,15.07-.12-.11-.36-.31-.58-.53-2.31-2.3-4.62-4.59-6.9-6.91a1,1,0,0,0-1.41-.25c-2.76,1.28-5.56,2.46-8.48,3.74v11.27H39.82v-1c0-3.25,0-6.51,0-9.76,0-.59-.19-.81-.75-1q-3.93-1.53-7.8-3.24a1,1,0,0,0-1.33.24c-2.49,2.53-5,5-7.43,7.47L7.43,78.44c1.9-1.89,3.94-3.93,6-6,.67-.67,1.7-1.3,1.86-2.08s-.72-1.6-1.06-2.45c-.81-2-1.61-4-2.33-6a.92.92,0,0,0-1-.76c-3.61,0-7.23,0-10.84,0V39.83c3.58,0,7.16,0,10.75,0,.67,0,1-.18,1.15-.85.24-1,.62-1.93,1-3l2.7,1-1.71,5.77H3V58.13H13.94a38.36,38.36,0,0,0,5.23,12.64l-7.69,7.68L22.39,89.38,30,81.68A38.92,38.92,0,0,0,42.78,87V97.94H58.16V87a38.42,38.42,0,0,0,12.58-5.22l7.67,7.72,11-11L81.72,70.9A38.57,38.57,0,0,0,87,58.19H97.94V42.81H87a38.83,38.83,0,0,0-5.28-12.69l7.67-7.65L78.56,11.59l-7.63,7.67A38.79,38.79,0,0,0,58.19,14V3H42.82V13.94A38.72,38.72,0,0,0,30.15,19.2l-7.64-7.66-11,11,7.62,7.61L16.76,34.4l-2.62-1.24a7.26,7.26,0,0,1,.73-1.45c.69-.87.38-1.43-.34-2.12-2.43-2.35-4.8-4.77-7.1-7.07L22.52,7.42l5.84,5.84c.72.72,1.38,1.82,2.22,2s1.72-.76,2.63-1.13c1.94-.78,3.89-1.55,5.87-2.25.57-.2.76-.43.75-1,0-3.62,0-7.23,0-10.85Z"/><path class="cls-1" d="M34,66.64l-1.9,2.07c-8.33-7.79-11-23-1.88-34.48a26,26,0,1,1,4.22,36.63l1.75-2.28c6.18,4.58,13,6.07,20.4,4.07a22.21,22.21,0,0,0,13.25-9.76A23,23,0,1,0,34,66.64Z"/><path class="cls-1" d="M64.25,56.19l2.56,1.06c-1.44,7-11.76,12.5-20.05,10.65A17.82,17.82,0,1,1,67.85,54.19l-2.8-.6A14.91,14.91,0,0,0,61.37,40.4a14.3,14.3,0,0,0-9.2-4.67A14.85,14.85,0,1,0,64.25,56.19Z"/><path class="cls-1" d="M47.84,54.41l9.48-11.22,2.26,1.91L47.65,59.24c-2.14-3-4.2-5.83-6.33-8.77l2.4-1.74Z"/><path class="cls-1" d="M44.26,19.15,44.84,22l-2.72.71-.86-2.83Z"/><path class="cls-1" d="M39.45,23.68,36.9,24.89l-1.39-2.6L38.29,21Z"/><path class="cls-1" d="M34.47,26.34,32.2,28l-1.87-2.29,2.48-1.85Z"/></g></g></svg>