<svg xmlns="http://www.w3.org/2000/svg" viewBox="0 0 269.89 75.88"><defs><style>.cls-1,.cls-2{fill:#fff;}.cls-2{fill-rule:evenodd;}</style></defs><g id="Layer_2" data-name="Layer 2"><g id="Layer_3" data-name="Layer 3"><path class="cls-1" d="M101,41.52H98.69V40.17h6.24v1.35h-2.29v5.81H101Z"/><path class="cls-1" d="M110.39,47.33l-1.38-2h-1.53v2h-1.66V40.17h3.11a4,4,0,0,1,1.65.31,2.41,2.41,0,0,1,1.08.9,2.51,2.51,0,0,1,.38,1.39,2.37,2.37,0,0,1-.39,1.37,2.42,2.42,0,0,1-1.09.89l1.61,2.3ZM110,41.84a1.72,1.72,0,0,0-1.14-.32h-1.35V44h1.35a1.72,1.72,0,0,0,1.14-.32,1.14,1.14,0,0,0,.39-.92A1.12,1.12,0,0,0,110,41.84Z"/><path class="cls-1" d="M114.14,46.6a3.24,3.24,0,0,1-.85-2.42v-4h1.65v3.95c0,1.28.54,1.92,1.6,1.92a1.5,1.5,0,0,0,1.19-.46,2.19,2.19,0,0,0,.41-1.46V40.17h1.64v4a3.39,3.39,0,0,1-5.64,2.42Z"/><path class="cls-1" d="M128,40.17v7.16h-1.36L123.05,43v4.35h-1.64V40.17h1.38l3.56,4.35V40.17Z"/><path class="cls-1" d="M134.53,43.64H136v2.9a4.29,4.29,0,0,1-1.35.68,5.09,5.09,0,0,1-1.54.23,4.14,4.14,0,0,1-2-.47,3.76,3.76,0,0,1-1.4-5.14,3.59,3.59,0,0,1,1.41-1.32,4.25,4.25,0,0,1,2-.48,4.45,4.45,0,0,1,1.71.32,3.43,3.43,0,0,1,1.29.92l-1.07,1a2.48,2.48,0,0,0-1.85-.8,2.55,2.55,0,0,0-1.22.28,2.09,2.09,0,0,0-.83.81,2.53,2.53,0,0,0,0,2.39,2.09,2.09,0,0,0,.83.81,2.48,2.48,0,0,0,1.2.29,2.62,2.62,0,0,0,1.29-.31Z"/><path class="cls-1" d="M142,41.52h-2.29V40.17h6.24v1.35h-2.29v5.81H142Z"/><path class="cls-1" d="M151.16,45.8h-3.32l-.64,1.53h-1.7l3.2-7.16h1.63l3.21,7.16H151.8Zm-.75-6.22-.89-.78-.89.78h-1.17l1.35-1.47h1.41l1.35,1.47Zm.23,5-1.13-2.75-1.14,2.75Z"/><path class="cls-1" d="M160.81,47.33V43l-2.11,3.54h-.75l-2.1-3.45v4.21h-1.55V40.17h1.37l2.68,4.45L161,40.17h1.36l0,7.16Z"/><path class="cls-1" d="M170.4,44.79v2.54h-1.66V44.77L166,40.17h1.76l1.91,3.18,1.92-3.18h1.62Z"/><path class="cls-1" d="M179.39,44.52l-1,1v1.81h-1.64V40.17h1.64v3.34l3.18-3.34h1.84l-3,3.19,3.15,4h-1.94Z"/><path class="cls-1" d="M190.92,40.17v7.16h-1.65V44.39H186v2.94h-1.66V40.17H186V43h3.26V40.17Z"/><path class="cls-1" d="M194.08,47a3.66,3.66,0,0,1,0-6.45,4.2,4.2,0,0,1,2-.48,4.15,4.15,0,0,1,2,.48,3.66,3.66,0,0,1,1.4,1.33A3.65,3.65,0,0,1,198.1,47a4.15,4.15,0,0,1-2,.48A4.2,4.2,0,0,1,194.08,47Zm3.16-1.22a2.08,2.08,0,0,0,.8-.81,2.51,2.51,0,0,0,0-2.38,2,2,0,0,0-.8-.81,2.41,2.41,0,0,0-2.29,0,2.1,2.1,0,0,0-.81.81,2.59,2.59,0,0,0,0,2.38,2.17,2.17,0,0,0,.81.81,2.41,2.41,0,0,0,2.29,0Z"/><path class="cls-1" d="M205.88,45.8h-3.33l-.63,1.53h-1.7l3.19-7.16h1.64l3.21,7.16h-1.74Zm-.52-1.26-1.14-2.75-1.13,2.75Z"/><path class="cls-1" d="M218.79,40.17l-3.1,7.16h-1.64L211,40.17h1.79l2.18,5.11,2.21-5.11Z"/><path class="cls-1" d="M223.87,45.8h-3.33l-.63,1.53h-1.7l3.19-7.16H223l3.2,7.16H224.5Zm-.52-1.26-1.14-2.75-1.14,2.75Zm-1.64,4.75a.65.65,0,0,1-.2-.49.73.73,0,0,1,.2-.52.74.74,0,0,1,1,0,.7.7,0,0,1,.21.52.65.65,0,0,1-.2.49.72.72,0,0,1-.51.19A.7.7,0,0,1,221.71,49.29Z"/><path class="cls-1" d="M233.56,40.17v7.16H232.2L228.63,43v4.35H227V40.17h1.37l3.56,4.35V40.17Z"/><path class="cls-1" d="M244.73,40.17v7.16h-1.66V44.39h-3.25v2.94h-1.66V40.17h1.66V43h3.25V40.17Z"/><path class="cls-1" d="M251.15,45.8h-3.33l-.63,1.53h-1.7l3.19-7.16h1.64l3.2,7.16h-1.74Zm-.52-1.26-1.14-2.75-1.14,2.75ZM249,49.29a.65.65,0,0,1-.2-.49.69.69,0,0,1,.71-.72.69.69,0,0,1,.5.2.7.7,0,0,1,.21.52.65.65,0,0,1-.2.49.7.7,0,0,1-.51.19A.72.72,0,0,1,249,49.29Z"/><path class="cls-1" d="M260.84,40.17v7.16h-1.36L255.91,43v4.35h-1.64V40.17h1.37l3.57,4.35V40.17Z"/><path class="cls-1" d="M269.12,40.17v7.16h-1.66V44.39H264.2v2.94h-1.66V40.17h1.66V43h3.26V40.17Z"/><path class="cls-1" d="M102.3,53.41l-2.19,5H99.4l-2.2-5H98l1.8,4.11,1.82-4.11Z"/><path class="cls-1" d="M108.83,57.16h-2.66l-.55,1.25h-.74l2.27-5h.7l2.28,5h-.75Zm-.25-.57-1.08-2.45-1.08,2.45Z"/><path class="cls-1" d="M118,53.41v5h-.58l-3-3.73v3.73h-.71v-5h.59l3,3.73V53.41Z"/><path class="cls-1" d="M131.47,53.41v5h-.71V56.18h-2.87v2.23h-.72v-5h.72v2.15h2.87V53.41Z"/><path class="cls-1" d="M139,57.16h-2.66l-.55,1.25h-.73l2.26-5h.71l2.27,5h-.75Zm-.25-.57-1.08-2.45-1.08,2.45Z"/><path class="cls-1" d="M148.23,53.41v5h-.59l-3-3.73v3.73h-.72v-5h.59l3,3.73V53.41Z"/><path class="cls-1" d="M156.89,53.41v5h-.72V56.18H153.3v2.23h-.71v-5h.71v2.15h2.87V53.41Z"/><path class="cls-1" d="M170.67,58.41V54.77l-1.81,3h-.33l-1.81-3v3.62H166v-5h.58l2.09,3.51,2.06-3.51h.59v5Z"/><path class="cls-1" d="M179.34,57.79v.62h-3.63v-5h3.53V54h-2.81v1.54h2.51v.6h-2.51v1.62Z"/><path class="cls-1" d="M183.36,53.41h2.11a3,3,0,0,1,1.41.31,2.33,2.33,0,0,1,1,.89,2.66,2.66,0,0,1,0,2.6,2.33,2.33,0,0,1-1,.89,3,3,0,0,1-1.41.31h-2.11Zm2.06,4.38a2.25,2.25,0,0,0,1.07-.24,1.57,1.57,0,0,0,.71-.66,2,2,0,0,0,0-2,1.57,1.57,0,0,0-.71-.66,2.25,2.25,0,0,0-1.07-.24h-1.35v3.76Z"/><path class="cls-1" d="M192.12,53.41h.72v5h-.72Z"/><path class="cls-1" d="M198.08,58.14a2.54,2.54,0,0,1-1-.92,2.69,2.69,0,0,1,0-2.62,2.54,2.54,0,0,1,1-.92,3,3,0,0,1,2.43-.13,2.12,2.12,0,0,1,.83.58l-.46.45a1.89,1.89,0,0,0-1.41-.59,2,2,0,0,0-1,.25,1.72,1.72,0,0,0-.7.69,2,2,0,0,0,0,2,1.72,1.72,0,0,0,.7.69,2,2,0,0,0,1,.25,1.88,1.88,0,0,0,1.41-.6l.46.45a2.22,2.22,0,0,1-.83.59,2.92,2.92,0,0,1-1.08.2A2.75,2.75,0,0,1,198.08,58.14Z"/><path class="cls-1" d="M208.29,57.16h-2.66l-.55,1.25h-.74l2.27-5h.71l2.27,5h-.75Zm-.25-.57L207,54.14l-1.08,2.45Z"/><path class="cls-1" d="M213.19,53.41h.71v4.38h2.71v.62h-3.42Z"/><path class="cls-1" d="M226,58.14a2.47,2.47,0,0,1-1-.92,2.69,2.69,0,0,1,0-2.62,2.54,2.54,0,0,1,1-.92,3,3,0,0,1,2.43-.13,2.19,2.19,0,0,1,.83.58l-.46.45a1.89,1.89,0,0,0-1.41-.59,2,2,0,0,0-1,.25,1.66,1.66,0,0,0-.7.69,2,2,0,0,0,0,2,1.66,1.66,0,0,0,.7.69,2,2,0,0,0,1,.25,1.9,1.9,0,0,0,1.41-.6l.46.45a2.22,2.22,0,0,1-.83.59,2.92,2.92,0,0,1-1.08.2A2.75,2.75,0,0,1,226,58.14Z"/><path class="cls-1" d="M236.73,57.79v.62H233.1v-5h3.53V54h-2.82v1.54h2.51v.6h-2.51v1.62Z"/><path class="cls-1" d="M245.05,53.41v5h-.59l-3-3.73v3.73h-.71v-5h.58l3,3.73V53.41Z"/><path class="cls-1" d="M250.4,54h-1.71v-.62h4.14V54h-1.72v4.38h-.71Z"/><path class="cls-1" d="M260.09,57.79v.62h-3.63v-5H260V54h-2.81v1.54h2.51v.6h-2.51v1.62Z"/><path class="cls-1" d="M267.45,58.41l-1.07-1.54-.32,0h-1.24v1.52h-.71v-5h1.95a2.31,2.31,0,0,1,1.53.46,1.59,1.59,0,0,1,.56,1.28,1.68,1.68,0,0,1-.29,1,1.59,1.59,0,0,1-.81.59l1.18,1.68ZM267.08,56a1.06,1.06,0,0,0,.35-.84,1,1,0,0,0-.35-.83,1.65,1.65,0,0,0-1-.29h-1.22v2.25H266A1.65,1.65,0,0,0,267.08,56Z"/><path class="cls-1" d="M101.61,70.34a1.27,1.27,0,0,1,.57.47,1.43,1.43,0,0,1,0,1.46,1.23,1.23,0,0,1-.57.48,2.14,2.14,0,0,1-.87.16H100v1H99.1V70.17h1.64A2.14,2.14,0,0,1,101.61,70.34ZM101.29,72a.7.7,0,0,0,0-1,1,1,0,0,0-.6-.17H100V72.2h.72A1,1,0,0,0,101.29,72Z"/><path class="cls-1" d="M105.31,73.14h-1.76l-.34.82h-.9L104,70.17h.87L106.56,74h-.92Zm-.28-.66-.6-1.45-.6,1.45Z"/><path class="cls-1" d="M107,70.17h.88V74H107Z"/><path class="cls-1" d="M112.2,70.17V74h-.72l-1.89-2.3V74h-.86V70.17h.72l1.89,2.3v-2.3Z"/><path class="cls-1" d="M118.07,74V71.68L117,73.56h-.39l-1.11-1.83V74h-.82V70.17h.72l1.42,2.35,1.4-2.35h.72V74Z"/><path class="cls-1" d="M122.29,73.14h-1.76l-.34.82h-.89L121,70.17h.87L123.54,74h-.92Zm-.28-.66-.6-1.45-.6,1.45Z"/><path class="cls-1" d="M127.41,70.17V74h-.72l-1.89-2.3V74h-.86V70.17h.72l1.88,2.3v-2.3Z"/><path class="cls-1" d="M130.8,73.14H129l-.33.82h-.9l1.69-3.79h.86L132.05,74h-.92Zm-.28-.66-.6-1.45-.6,1.45Z"/><path class="cls-1" d="M135,72h.8v1.54a2.49,2.49,0,0,1-.71.36,2.86,2.86,0,0,1-.82.12,2.21,2.21,0,0,1-1.06-.25,1.92,1.92,0,0,1-.74-.7,2,2,0,0,1-.26-1,2,2,0,0,1,.26-1,1.85,1.85,0,0,1,.75-.69,2.23,2.23,0,0,1,1.07-.26,2.37,2.37,0,0,1,.9.17,1.78,1.78,0,0,1,.68.49l-.56.52a1.29,1.29,0,0,0-1-.43,1.34,1.34,0,0,0-.64.15,1.14,1.14,0,0,0-.44.43,1.32,1.32,0,0,0,0,1.26,1.14,1.14,0,0,0,.44.43,1.28,1.28,0,0,0,.63.15,1.39,1.39,0,0,0,.68-.16Z"/><path class="cls-1" d="M139.5,73.25V74h-2.94V70.17h2.87v.7h-2v.82h1.75v.69h-1.75v.87Z"/><path class="cls-1" d="M143.64,74V71.68l-1.11,1.88h-.4L141,71.73V74h-.83V70.17h.73l1.42,2.35,1.39-2.35h.72V74Z"/><path class="cls-1" d="M148.29,73.25V74h-2.93V70.17h2.86v.7h-2v.82H148v.69h-1.76v.87Z"/><path class="cls-1" d="M152.46,70.17V74h-.72l-1.89-2.3V74H149V70.17h.72l1.88,2.3v-2.3Z"/><path class="cls-1" d="M154.14,70.88h-1.21v-.71h3.3v.71H155V74h-.88Z"/><path class="cls-1" d="M158.06,72.09h1.53v.68h-1.53Z"/><path class="cls-1" d="M165.32,70.17V74h-.72l-1.89-2.3V74h-.86V70.17h.72l1.89,2.3v-2.3Z"/><path class="cls-1" d="M169.15,73.25V74h-2.93V70.17h2.86v.7h-2v.82h1.76v.69h-1.76v.87Z"/><path class="cls-1" d="M170.27,73.57a1.74,1.74,0,0,1-.46-1.28V70.17h.88v2.09c0,.67.28,1,.84,1a.79.79,0,0,0,.63-.24,1.12,1.12,0,0,0,.22-.77V70.17h.86v2.12a1.74,1.74,0,0,1-.45,1.28,2,2,0,0,1-2.52,0Z"/><path class="cls-1" d="M176.52,74l-.73-1.06H175V74h-.88V70.17h1.64a2.14,2.14,0,0,1,.87.17,1.27,1.27,0,0,1,.57.47,1.35,1.35,0,0,1,.2.73,1.33,1.33,0,0,1-.2.73,1.36,1.36,0,0,1-.58.47l.85,1.22Zm-.22-2.91a1,1,0,0,0-.6-.17H175V72.2h.71a.89.89,0,0,0,.6-.17.7.7,0,0,0,0-1Z"/><path class="cls-1" d="M178.85,73.77a2,2,0,0,1-.74-.7,2,2,0,0,1-.26-1,2,2,0,0,1,.26-1,1.92,1.92,0,0,1,.74-.7,2.31,2.31,0,0,1,2.13,0,2,2,0,0,1,.74,2.71,2,2,0,0,1-.74.7,2.39,2.39,0,0,1-2.13,0Zm1.67-.65a1.18,1.18,0,0,0,.43-.43,1.28,1.28,0,0,0,.15-.63,1.33,1.33,0,0,0-.15-.63,1.15,1.15,0,0,0-.43-.42,1.22,1.22,0,0,0-1.21,0,1.06,1.06,0,0,0-.42.42,1.23,1.23,0,0,0-.16.63,1.18,1.18,0,0,0,.16.63,1.09,1.09,0,0,0,.42.43,1.3,1.3,0,0,0,1.21,0Z"/><path class="cls-1" d="M182.65,70.17h.87v3.07h1.9V74h-2.77Z"/><path class="cls-1" d="M186.62,73.77a2,2,0,0,1-.74-.7,1.93,1.93,0,0,1-.27-1,1.89,1.89,0,0,1,1-1.7,2.22,2.22,0,0,1,1.06-.26,2.16,2.16,0,0,1,1.06.26,1.85,1.85,0,0,1,.74.7,1.82,1.82,0,0,1,.28,1,1.85,1.85,0,0,1-.28,1,1.92,1.92,0,0,1-.74.7,2.16,2.16,0,0,1-1.06.25A2.21,2.21,0,0,1,186.62,73.77Zm1.67-.65a1.09,1.09,0,0,0,.42-.43,1.18,1.18,0,0,0,.16-.63,1.23,1.23,0,0,0-.16-.63,1.06,1.06,0,0,0-.42-.42,1.22,1.22,0,0,0-1.21,0,1.15,1.15,0,0,0-.43.42,1.33,1.33,0,0,0-.15.63,1.28,1.28,0,0,0,.15.63,1.18,1.18,0,0,0,.43.43,1.3,1.3,0,0,0,1.21,0Z"/><path class="cls-1" d="M193,72h.8v1.54a2.49,2.49,0,0,1-.71.36,2.86,2.86,0,0,1-.82.12,2.21,2.21,0,0,1-1.06-.25,1.92,1.92,0,0,1-.74-.7,2,2,0,0,1-.26-1,2,2,0,0,1,.26-1,1.85,1.85,0,0,1,.75-.69,2.23,2.23,0,0,1,1.07-.26,2.37,2.37,0,0,1,.9.17,1.78,1.78,0,0,1,.68.49l-.56.52a1.29,1.29,0,0,0-1-.43,1.34,1.34,0,0,0-.64.15,1.14,1.14,0,0,0-.44.43,1.32,1.32,0,0,0,0,1.26,1.14,1.14,0,0,0,.44.43,1.28,1.28,0,0,0,.63.15,1.39,1.39,0,0,0,.68-.16Z"/><path class="cls-1" d="M196.4,72.61V74h-.87V72.6l-1.47-2.43H195l1,1.68,1-1.68h.86Z"/><rect class="cls-1" x="98.72" y="64.66" width="171.17" height="0.76"/><path class="cls-2" d="M107.63,2.14V9.8h-6.29A5.22,5.22,0,0,0,96.12,15v6H88.25a2.17,2.17,0,0,1-2.19-2.14v-6a2.18,2.18,0,0,1,2.19-2.15h8.83V2.14A2.12,2.12,0,0,1,97.73.63,2.18,2.18,0,0,1,99.28,0h6.14A2.22,2.22,0,0,1,107,.63a2.12,2.12,0,0,1,.65,1.51"/><path class="cls-2" d="M118.64,12.91v6a2.18,2.18,0,0,1-2.2,2.14h-8.82c0-6.88,4-9.31,9-10.29a2.17,2.17,0,0,1,2.06,2.05v.09"/><path class="cls-1" d="M101.87,10.77c-3.36,0-4.79,2.07-4.79,5.26V29.69a2.18,2.18,0,0,0,2.2,2.15h6.15a2.18,2.18,0,0,0,2.19-2.15V21.07c0-6.88,4-9.32,9-10.3H101.87Z"/><path class="cls-1" d="M2.44,27.41H16a2.42,2.42,0,0,1,1.85.85L39.17,53.18V29.85a2.44,2.44,0,0,1,2.44-2.44h9.85a2.43,2.43,0,0,1,2.43,2.44V73.44a2.43,2.43,0,0,1-2.43,2.44H40.28A2.43,2.43,0,0,1,38.45,75L.6,31.45a2.44,2.44,0,0,1,1.84-4"/><path class="cls-1" d="M76.33,27.41a2.44,2.44,0,0,0-2.44,2.44v14.7H56v11.7a2.44,2.44,0,0,0,2.49,2.44l15.17-.31L74,73.49a2.44,2.44,0,0,0,2.44,2.39h9.41a2.43,2.43,0,0,0,2.43-2.44V29.85a2.43,2.43,0,0,0-2.43-2.44Z"/></g></g></svg>