<svg xmlns="http://www.w3.org/2000/svg" viewBox="0 0 79.17 77.39"><defs><style>.cls-1{fill:#0fb8c0;}.cls-2{fill:#0f4c94;fill-rule:evenodd;}</style></defs><g id="Layer_2" data-name="Layer 2"><g id="Layer_3" data-name="Layer 3"><path class="cls-1" d="M44.73,2.6A2.94,2.94,0,0,1,47.91,0a2.93,2.93,0,0,1,3.17,2.6V14a2.93,2.93,0,0,1-3.17,2.6A2.92,2.92,0,0,1,44.73,14V2.6ZM8.64,36.84c-.18,0-.34-.8-.34-1.76s.14-1.76.34-1.76H17.3c.18,0,.34.8.34,1.76s-.14,1.76-.34,1.76Zm13.8,0c-.19,0-.35-.8-.35-1.76s.15-1.76.35-1.76h8.65c.19,0,.35.8.35,1.76s-.15,1.76-.35,1.76Zm13.8,0c-.18,0-.35-.8-.35-1.76s.15-1.76.35-1.76H44.9c.18,0,.34.79.34,1.75a25.65,25.65,0,0,0-2.5,1.77ZM8.66,46.91c-.18,0-.34-.8-.34-1.76s.14-1.76.34-1.76h8.66c.18,0,.34.79.34,1.76s-.14,1.76-.34,1.76Zm13.79,0c-.18,0-.34-.8-.34-1.76s.14-1.76.34-1.76h8.66c.18,0,.35.79.35,1.76s-.15,1.76-.35,1.76ZM8.67,57c-.18,0-.34-.8-.34-1.76s.14-1.76.34-1.76h8.66c.18,0,.34.79.34,1.76S17.53,57,17.33,57Zm13.8,0c-.18,0-.34-.8-.34-1.76s.14-1.76.34-1.76h8.66c.18,0,.34.79.34,1.76S31.33,57,31.13,57ZM16.24,2.6A2.93,2.93,0,0,1,19.41,0a2.92,2.92,0,0,1,3.17,2.6V14a2.93,2.93,0,0,1-3.17,2.6A2.91,2.91,0,0,1,16.24,14V2.6ZM3.49,24.88H63.91V11.78a1.56,1.56,0,0,0-.47-1.13,1.61,1.61,0,0,0-1.13-.47H56.52a1.76,1.76,0,0,1,0-3.52h5.79a5.12,5.12,0,0,1,5.12,5.12v20.8a26.27,26.27,0,0,0-3.56-1V28.38H3.49V62.31A1.54,1.54,0,0,0,4,63.43a1.61,1.61,0,0,0,1.13.47H33.8A26.56,26.56,0,0,0,35,67.45H5.12A5.1,5.1,0,0,1,1.5,66,5.06,5.06,0,0,1,0,62.34V11.79A5.12,5.12,0,0,1,5.12,6.67h6.19a1.76,1.76,0,1,1,0,3.52H5.12A1.58,1.58,0,0,0,4,10.66a1.61,1.61,0,0,0-.47,1.12v13.1Zm24.17-14.7a1.76,1.76,0,0,1,0-3.52H39.45a1.76,1.76,0,0,1,0,3.52Z"/><path class="cls-2" d="M58.69,36.42a20.49,20.49,0,1,1-14.48,6,20.46,20.46,0,0,1,14.48-6Zm-9,22.66a2.18,2.18,0,0,1-.44-.69,2.35,2.35,0,0,1,.43-2.5l.11-.11a2.37,2.37,0,0,1,2.84-.32,2.4,2.4,0,0,1,.37.28h0c.64.62,1.73,1.63,2.45,2.26l.61.55,7.51-7.88a2,2,0,0,1,.35-.29,2.56,2.56,0,0,1,.39-.22,2.22,2.22,0,0,1,.89-.19h0l.45,0,.44.12.41.2a2.26,2.26,0,0,1,.35.28l0,0a3.07,3.07,0,0,1,.29.34,3.11,3.11,0,0,1,.22.4,2,2,0,0,1,.14.43,3.47,3.47,0,0,1,.06.45v.08a2.71,2.71,0,0,1,0,.4,2.9,2.9,0,0,1-.12.42,2.22,2.22,0,0,1-.2.41,1.87,1.87,0,0,1-.28.35l-9.08,9.52a3.17,3.17,0,0,1-.34.3,1.94,1.94,0,0,1-.4.22,2,2,0,0,1-.43.15,1.68,1.68,0,0,1-.45.06h0a2.75,2.75,0,0,1-.41,0h0a2.6,2.6,0,0,1-.4-.1,2.22,2.22,0,0,1-.41-.2h0l-.34-.25,0,0c-.53-.49-1.11-1-1.68-1.49-1-.87-2.4-2.12-3.24-3Z"/></g></g></svg>