<?xml version="1.0" encoding="UTF-8"?>
<svg xmlns="http://www.w3.org/2000/svg" version="1.1" viewBox="0 0 216 180">
  <defs>
    <style>
      .cls-1 {
        fill: #af9b68;
        fill-rule: evenodd;
      }

      .cls-2 {
        fill: #0b4d56;
      }
    </style>
  </defs>
  <!-- Generator: Adobe Illustrator 28.6.0, SVG Export Plug-In . SVG Version: 1.2.0 Build 709)  -->
  <g>
    <g id="Layer_1">
      <g>
        <path class="cls-1" d="M46.37,78.6v22.71c.06,4.53,3.79,8.17,8.32,8.12h33.38c0-26.01-15.17-35.24-33.9-38.94-4.19.2-7.57,3.56-7.8,7.74v.37"/>
        <path class="cls-1" d="M88.07,37.85v28.96s23.8,0,23.8,0c10.84.11,19.59,8.95,19.56,19.82v22.83s29.94,0,29.94,0c4.53.03,8.2-3.58,8.26-8.12v-22.71c-.06-4.53-3.73-8.17-8.26-8.17h-33.44v-32.6c0-2.18-.89-4.24-2.44-5.76-1.58-1.49-3.7-2.32-5.88-2.35h-23.26c-2.18,0-4.27.86-5.88,2.35-1.55,1.52-2.44,3.61-2.44,5.76"/>
        <path class="cls-2" d="M109.81,70.51c12.73,0,18.15,7.86,18.15,19.9v51.67c-.06,4.56-3.79,8.2-8.32,8.17h-23.26c-4.56.03-8.26-3.61-8.32-8.17v-32.6c0-26.01-15.17-35.24-33.9-39h55.63v.03Z"/>
      </g>
    </g>
  </g>
</svg>