<svg width="124" height="121" viewBox="0 0 124 121" fill="none" xmlns="http://www.w3.org/2000/svg">
<path fill-rule="evenodd" clip-rule="evenodd" d="M123.26 48.8502V71.5602C123.2 76.0902 119.47 79.7302 114.94 79.6802H81.56C81.56 53.6702 96.73 44.4402 115.46 40.7402C119.65 40.9402 123.03 44.3002 123.26 48.4802V48.8502Z" fill="#AF9B68"/>
<path fill-rule="evenodd" clip-rule="evenodd" d="M81.5598 8.1V37.06H57.7598C46.9198 37.17 38.1698 46.01 38.1998 56.88V79.71H8.26003C3.73002 79.74 0.0600153 76.13 1.52588e-05 71.59V48.88C0.0600153 44.35 3.73002 40.71 8.26003 40.71H41.6998V8.11C41.6998 5.93 42.5898 3.87 44.1398 2.35C45.7198 0.859998 47.8398 0.03 50.0198 0H73.2798C75.4598 0 77.5498 0.859998 79.1598 2.35C80.7098 3.87 81.5998 5.96 81.5998 8.11" fill="#AF9B68"/>
<path d="M59.82 40.7605C47.09 40.7605 41.67 48.6205 41.67 60.6605V112.33C41.73 116.89 45.46 120.53 49.99 120.5H73.25C77.81 120.53 81.51 116.89 81.57 112.33V79.7305C81.57 53.7205 96.74 44.4905 115.47 40.7305H59.84V40.7605H59.82Z" fill="#0B4D56"/>
</svg>
