<svg xmlns="http://www.w3.org/2000/svg" xmlns:xlink="http://www.w3.org/1999/xlink" viewBox="0 0 60.69 59.31"><defs><style>.cls-1{fill:#0d4d97;}.cls-1,.cls-2{fill-rule:evenodd;}.cls-2{fill:#0f4c94;}.cls-3{fill:url(#linear-gradient);}</style><linearGradient id="linear-gradient" x1="21.17" y1="39.68" x2="61.07" y2="39.68" gradientUnits="userSpaceOnUse"><stop offset="0" stop-color="#00abcf"/><stop offset="1" stop-color="#0f4c94"/></linearGradient></defs><g id="Layer_2" data-name="Layer 2"><g id="Layer_3" data-name="Layer 3"><path class="cls-1" d="M40.17,4V18.26H28.45A9.72,9.72,0,0,0,18.74,28V39.24H4.08a4.06,4.06,0,0,1-4.08-4V24a4.07,4.07,0,0,1,4.08-4H20.53V4a4.05,4.05,0,0,1,1.2-2.84A4.17,4.17,0,0,1,24.62,0H36.07A4.23,4.23,0,0,1,39,1.16,4.05,4.05,0,0,1,40.17,4"/><path class="cls-2" d="M60.69,24v11.2a4.06,4.06,0,0,1-4.09,4H40.16c0-12.82,7.47-17.35,16.68-19.19a4.06,4.06,0,0,1,3.84,3.82c0,.06,0,.12,0,.17"/><path class="cls-3" d="M29.45,20.05c-6.27,0-8.92,3.87-8.92,9.82V55.31a4.06,4.06,0,0,0,4.09,4H36.07a4.06,4.06,0,0,0,4.09-4V39.24c0-12.81,7.47-17.34,16.69-19.18H29.45Z"/></g></g></svg>