<svg width="124" height="121" viewBox="0 0 124 121" fill="none" xmlns="http://www.w3.org/2000/svg">
<path fill-rule="evenodd" clip-rule="evenodd" d="M0 48.8502V71.5602C0.06 76.0902 3.79 79.7302 8.32 79.6802H41.7C41.7 53.6702 26.53 44.4402 7.8 40.7402C3.61 40.9402 0.23 44.3002 0 48.4802V48.8502Z" fill="#AF9B68"/>
<path fill-rule="evenodd" clip-rule="evenodd" d="M41.7002 8.1V37.06H65.5002C76.3402 37.17 85.0902 46.01 85.0602 56.88V79.71H115C119.53 79.74 123.2 76.13 123.26 71.59V48.88C123.2 44.35 119.53 40.71 115 40.71H81.5602V8.11C81.5602 5.93 80.6702 3.87 79.1202 2.35C77.5402 0.859998 75.4202 0.03 73.2402 0H49.9802C47.8002 0 45.7102 0.859998 44.1002 2.35C42.5502 3.87 41.6602 5.96 41.6602 8.11" fill="#AF9B68"/>
<path d="M63.44 40.7605C76.17 40.7605 81.59 48.6205 81.59 60.6605V112.33C81.53 116.89 77.8 120.53 73.27 120.5H50.01C45.45 120.53 41.75 116.89 41.69 112.33V79.7305C41.69 53.7205 26.52 44.4905 7.79004 40.7305H63.42V40.7605H63.44Z" fill="#0B4D56"/>
</svg>
